<svg xmlns="http://www.w3.org/2000/svg" viewBox="-735 237 28 28"><path fill="#55ACEE" d="M-733 237h24a2 2 0 012 2v24a2 2 0 01-2 2h-24a2 2 0 01-2-2v-24a2 2 0 012-2z"/><path fill="#fff" d="M-711.351 245.296a8.22 8.22 0 01-2.279.597 3.845 3.845 0 001.745-2.098 8.161 8.161 0 01-2.52.92 4.051 4.051 0 00-2.896-1.198c-2.192 0-3.968 1.698-3.968 3.792 0 .297.035.587.103.864-3.298-.158-6.222-1.668-8.179-3.962a3.641 3.641 0 00-.537 1.906c0 1.316.701 2.476 1.765 3.156a4.094 4.094 0 01-1.797-.474v.048c0 1.837 1.368 3.37 3.183 3.718a4.134 4.134 0 01-1.792.065c.505 1.507 1.97 2.603 3.707 2.634a8.2 8.2 0 01-4.928 1.623c-.32 0-.636-.018-.947-.053a11.613 11.613 0 006.083 1.704c7.299 0 11.29-5.778 11.29-10.79l-.011-.491a7.861 7.861 0 001.978-1.961"/></svg>