<svg xmlns="http://www.w3.org/2000/svg" viewBox="-735 237 28 28"><path fill="#E52D27" d="M-733 237h24a2 2 0 012 2v24a2 2 0 01-2 2h-24a2 2 0 01-2-2v-24a2 2 0 012-2z"/><path fill="#fff" d="M-723.116 253.383l-.001-5.162 5.16 2.59-5.159 2.572zm11.329-6.057s-.187-1.266-.759-1.824c-.726-.732-1.54-.735-1.913-.778-2.672-.186-10.697-.186-13.37 0-.373.043-1.187.046-1.913.778-.573.558-.759 1.824-.759 1.824s-.191 1.487-.191 2.974v1.394c0 1.487.191 2.973.191 2.973s.186 1.266.759 1.824c.726.732 1.68.708 2.105.785 1.528.141 10.505.179 13.178-.007.373-.043 1.187-.046 1.913-.778.573-.558.759-1.824.759-1.824s.19-1.487.19-2.973V250.3a26.613 26.613 0 00-.19-2.974z"/></svg>